<?xml version="1.0" encoding="UTF-8"?>
<svg width="900" height="900" viewBox="0 0 900 900"
    xmlns="http://www.w3.org/2000/svg">
    <path id="Path" fill="#100f0d" stroke="none" d="M 448.25 23.8125 L 450.609985 23.8125 C 540.830017 24.05249 629.549988 52.932495 702 107.002502 L 703.630005 108.212524 C 715.859985 117.362488 727.349976 127.262512 738.530029 137.642517 L 742.890015 141.57251 C 810.900024 202.402466 856.049988 292.722534 871 392.002502 L 871.459961 395.142487 C 876.619995 431.592499 876.290039 470.582489 871 507.002502 L 870.51001 510.492493 C 859.070007 590.192505 824.52002 665.092529 772 726.002502 L 743.829956 756.30249 C 739.390015 760.742493 734.76001 764.902527 730 769.002502 L 726.859985 771.782471 C 699.179993 796.112488 667.839966 815.472473 635 832.002502 L 632.599976 833.222473 C 593.330017 853.112488 549.51001 865.192505 506 871.002502 L 502.859985 871.452515 C 466.720001 876.54248 428.109985 876.282471 392 871.002502 L 388.320007 870.462524 C 320.75 860.282471 255.020004 834.862488 200 794.002502 L 197.839996 792.392517 C 184.459991 782.412476 171.779999 771.80249 159.549988 760.432495 L 154.609985 755.922485 C 149.290009 751.092529 144.149994 746.30249 139.529999 740.782471 L 134.630005 735.692505 C 130.51001 731.622498 126.950012 727.162476 123.329987 722.652527 L 118.959991 717.33252 C 111.130005 707.882507 103.869995 698.162476 97 688.002502 L 95.600006 685.932495 C 58.170013 630.202515 34.899994 566.492493 26.75 499.932495 L 26.5 497.902496 C 24.559998 482.022491 23.76001 466.172485 23.75 450.192505 L 23.75 447.882507 C 23.859985 367.82251 46.899994 288.512512 90 221.002502 L 92.01001 217.852478 C 100.600006 204.722534 109.850006 191.962524 120 180.002502 L 122.570007 176.902466 C 132.109985 165.452515 142.23999 154.682495 152.75 144.122498 L 155.149994 141.712524 C 159.940002 136.932495 164.859985 132.392517 170 128.002502 L 173.059998 125.33252 C 249.050003 60.162476 348.209991 23.652527 448.25 23.8125 Z"/>
    <path id="path1" fill="#e21d24" stroke="none" d="M 448.25 23.8125 L 450.609985 23.8125 C 540.830017 24.05249 629.549988 52.932495 702 107.002502 L 703.630005 108.212524 C 715.859985 117.362488 727.349976 127.262512 738.530029 137.642517 L 742.890015 141.57251 C 810.900024 202.402466 856.049988 292.722534 871 392.002502 L 871.459961 395.142487 C 876.619995 431.592499 876.290039 470.582489 871 507.002502 L 870.51001 510.492493 C 859.070007 590.192505 824.52002 665.092529 772 726.002502 L 743.829956 756.30249 C 739.390015 760.742493 734.76001 764.902527 730 769.002502 L 726.859985 771.782471 C 699.179993 796.112488 667.839966 815.472473 635 832.002502 L 632.599976 833.222473 C 593.330017 853.112488 549.51001 865.192505 506 871.002502 L 502.859985 871.452515 C 466.720001 876.54248 428.109985 876.282471 392 871.002502 L 388.320007 870.462524 C 320.75 860.282471 255.020004 834.862488 200 794.002502 L 197.839996 792.392517 C 184.459991 782.412476 171.779999 771.80249 159.549988 760.432495 L 154.609985 755.922485 C 149.290009 751.092529 144.149994 746.30249 139.529999 740.782471 L 134.630005 735.692505 C 130.51001 731.622498 126.950012 727.162476 123.329987 722.652527 L 118.959991 717.33252 C 111.130005 707.882507 103.869995 698.162476 97 688.002502 L 95.600006 685.932495 C 58.170013 630.202515 34.899994 566.492493 26.75 499.932495 L 26.5 497.902496 C 24.559998 482.022491 23.76001 466.172485 23.75 450.192505 L 23.75 447.882507 C 23.859985 367.82251 46.899994 288.512512 90 221.002502 L 92.01001 217.852478 C 100.600006 204.722534 109.850006 191.962524 120 180.002502 L 122.570007 176.902466 C 132.109985 165.452515 142.23999 154.682495 152.75 144.122498 L 155.149994 141.712524 C 159.940002 136.932495 164.859985 132.392517 170 128.002502 L 173.059998 125.33252 C 249.050003 60.162476 348.209991 23.652527 448.25 23.8125 Z M 382 90.002502 L 378.140015 90.732483 C 313.419983 103.362488 251.929993 134.452515 203.740005 179.442505 L 195.75 186.692505 C 188.670013 193.05249 182.190002 199.772522 176 207.002502 L 173.320007 210.05249 C 126.390015 263.682495 96.899994 330.512512 87.25 400.932495 L 86.920013 403.292511 C 79.220001 459.862488 86.350006 517.182495 105 571.002502 L 105.910004 573.662476 C 120.670013 616.222473 144.929993 656.532471 175 690.002502 L 176.410004 691.58252 C 187.589996 704.07251 199.199997 716.632507 212.419998 726.982483 L 220.559998 733.752502 C 293.820007 794.672485 391.399994 821.432495 485.600006 812.992493 C 502.589996 811.222473 519.410034 808.022522 536 804.002502 L 538.190002 803.482483 C 580.710022 793.372498 625.599976 774.452515 660 747.002502 L 661 745.002502 L 488.820007 539.932495 C 487 537.382507 485.309998 535.102539 483 533.002502 C 479.459991 532.702515 478.200012 532.892456 475 534.002502 C 466.399994 536.57251 458.410004 537.55249 449.440002 537.502502 L 445.730011 537.482483 C 419.200012 536.952515 397.369995 525.0625 378.679993 506.722504 C 360.209991 487.392487 353.160004 461.772491 353.679993 435.55249 C 354.01001 427.722504 355.640015 420.442505 358 413.002502 L 359.100006 409.522491 C 367.910004 384.512512 386.919983 365.80249 410.450012 354.502502 C 416.160004 352.092529 421.970001 350.402466 428 349.002502 L 430.290009 348.462524 C 454.670013 343.112488 479.720001 348.55249 500.869995 361.3125 C 522.349976 376.0625 537.070007 396.382507 543 422.002502 C 543.880005 426.932495 544.030029 431.492493 543.580017 436.492493 C 542.640015 446.872498 542.640015 446.872498 546.719971 456.022491 C 551.619995 459.82251 557.25 462.212494 562.919983 464.632507 C 568.070007 466.922485 572.950012 469.702515 577.869995 472.432495 L 787 588.002502 C 804.709961 544.05249 814.530029 497.5625 814.25 450.122498 L 814.23999 447.192505 C 814.179993 433.362488 814.02002 419.702515 812 406.002502 L 811.450012 402.102509 C 805.690002 362.212524 794.859985 324.262512 777 288.002502 L 775.640015 285.232544 C 762.099976 258.032471 744.920044 231.842529 724.27002 209.472534 L 718.869995 203.362488 C 714.380005 198.212524 709.579956 193.392517 704.75 188.5625 L 702.089966 185.862488 C 696.039978 179.80249 689.690002 174.342529 683 169.002502 L 679.929993 166.392517 C 632.880005 126.04248 573.410034 100.732483 512.809998 89.622498 L 508.880005 88.902466 C 489.130005 85.442505 469.670013 84.5625 449.630005 84.5625 L 445.690002 84.5625 C 424.059998 84.592529 403.220001 85.852478 382 90.002502 Z"/>
    <path id="path2" fill="#fefefe" stroke="none" d="M 503.328125 361.976563 C 524.398132 377.936584 540.908142 399.30658 544.68811 426.266571 C 545.038147 429.756561 544.858154 432.966553 544.46814 436.456573 C 543.93811 442.52655 543.578125 448.28656 545.998108 453.996552 C 551.638123 459.79657 559.578125 462.636566 566.928101 465.686554 C 571.078125 467.456573 574.918091 469.616577 578.808105 471.876556 L 785.998169 586.996582 C 785.428101 592.846558 783.178101 597.666565 780.748169 602.936584 L 779.418091 605.846558 C 766.96814 632.476563 750.71814 657.356567 731.998108 679.996582 L 729.588135 682.936523 C 714.158142 701.576538 697.108154 719.106567 677.998108 733.996582 L 669.498108 740.816528 C 666.388123 743.246582 663.95813 744.586548 659.998108 744.996582 L 493.798126 547.576538 C 491.078125 544.386597 488.678131 541.086548 486.308136 537.626587 C 484.758118 535.496582 484.758118 535.496582 482.998138 533.996582 C 479.578125 533.766541 478.138123 533.976563 474.998138 534.996582 C 466.388123 537.54657 458.418121 538.54657 449.43811 538.496582 L 445.728119 538.476563 C 420.428131 537.976563 399.238129 527.166565 380.998108 509.996582 L 379.168121 508.396545 C 368.758118 498.896545 362.568115 486.076569 357.998108 472.996552 L 357.038147 470.476563 C 350.388123 452.29657 351.19812 431.266571 356.998108 412.996552 L 358.098145 409.516571 C 367.018127 384.206543 386.618134 364.946533 410.44812 353.496582 C 416.158142 351.086548 421.96814 349.396545 427.998108 347.996582 L 430.288116 347.466553 C 455.18811 341.996582 482.348114 347.576538 503.328125 361.976563 Z"/>
    <path id="path3" fill="#cccbc9" stroke="none" d="M 503.328125 361.976563 C 523.728149 377.426575 540.138123 398.04657 544.338135 424.076569 C 547.058105 445.866577 544.93811 466.346558 534.998108 485.996552 L 533.378113 489.216553 C 523.588135 507.126556 508.838135 519.53656 490.998138 528.996582 L 488.868134 530.246582 C 470.93811 540.27655 444.178131 541.186584 424.748108 535.996582 C 407.928131 531.096558 393.668121 521.926575 380.998108 509.996582 L 379.168121 508.396545 C 368.758118 498.896545 362.568115 486.076569 357.998108 472.996552 L 357.038147 470.476563 C 350.388123 452.29657 351.19812 431.266571 356.998108 412.996552 L 358.098145 409.516571 C 367.018127 384.206543 386.618134 364.946533 410.44812 353.496582 C 416.158142 351.086548 421.96814 349.396545 427.998108 347.996582 L 430.288116 347.466553 C 455.18811 341.996582 482.348114 347.576538 503.328125 361.976563 Z"/>
    <path id="path4" fill="#ebecec" stroke="none" d="M 381 152 C 382.359985 154.179993 382.359985 154.179993 383.309998 156.880005 L 384.299988 159.549988 C 385 162 385 162 385 165 L 383.179993 165.5 C 322.5 182.289978 264.040009 214.330017 225 265 L 222.369995 268.25 C 194.149994 303.22998 175.529999 344.440002 165 388 L 151 385 C 149.699997 382.400024 150.210007 381.51001 150.970001 378.72998 L 156.779999 358.339966 C 165.550003 329.150024 179.259995 300.799988 197 276 L 198.649994 273.679993 C 204.690002 265.23999 210.699997 256.849976 217.839996 249.299988 L 223.179993 243.320007 C 233.389999 231.609985 244.610001 220.390015 257 211 L 260.839996 207.969971 C 275.380005 196.559998 290.709991 186.700012 307 178 L 308.869995 177 C 366.070007 146.590027 366.070007 146.590027 381 152 Z"/>
    <path id="path5" fill="#eaeceb" stroke="none" d="M 402 197 L 405.359985 204.460022 C 406.029999 207.119995 405.920013 208.450012 405 211 L 402.160004 211.559998 C 367.720001 218.77002 333.470001 235.01001 306 257 L 303.480011 258.950012 C 296.649994 264.26001 290.26001 270.030029 284 276 L 282.179993 277.72998 C 273.839996 285.72998 266.200012 293.950012 259.309998 303.23999 L 255.270004 308.539978 C 233.460007 337.049988 221.070007 369.919983 211 404 L 197 401 C 200.470001 361.410034 224.990005 321.609985 249 291 L 251.389999 287.919983 C 264.529999 271.72998 280.019989 256.109985 297 244 L 300.5 241.409973 C 308.070007 235.849976 315.869995 230.719971 324 226 L 326.209991 224.710022 C 384.959991 190.820007 384.959991 190.820007 402 197 Z"/>
    <path id="path6" fill="#eaecec" stroke="none" d="M 421 244 L 424.220001 251.419983 C 425.070007 254.219971 424.809998 255.280029 424 258 L 422.190002 258.440002 C 383.26001 267.98999 347.600006 284.380005 318.529999 312.530029 L 315.339996 315.570007 C 305.779999 324.589966 297.609985 334.280029 290 345 L 288.76001 346.75 C 272.330017 370.179993 262.339996 396.559998 255 424 L 241 421 C 241.559998 414.710022 242.600006 408.970001 244.440002 402.940002 L 245.220001 400.359985 C 255.399994 368.140015 272.089996 339.280029 294.839996 314.380005 L 300.559998 307.809998 C 304.070007 303.799988 307.929993 300.419983 312 297 L 314.799988 294.539978 C 328.679993 282.409973 343.640015 272.450012 360 264 L 362.209991 262.840027 C 379.160004 254.030029 401.549988 243.190002 421 244 Z"/>
    <path id="path7" fill="#6c686c" stroke="none" d="M 457.25 425.6875 C 462.040009 428.347504 464.839996 432.017487 467 436.997498 C 467.829987 442.147491 467.579987 446.727509 465 451.307495 C 461.619995 455.997498 457.480011 459.387512 451.700012 460.407501 C 445.269989 460.667511 441.079987 458.847504 436.25 454.567505 C 431.809998 449.497498 431.559998 445.527496 431.679993 438.917511 C 432.25 433.69751 434.73999 431.137512 438.5 427.747498 C 444.670013 423.42749 450.26001 422.467499 457.25 425.6875 Z"/>
    <path id="path8" fill="#dcdddd" stroke="none" d="M 413 245 L 410 250 L 403 248 C 406.579987 245.609985 408.730011 245 413 245 Z"/>
    <path id="path9" fill="#d1d2d1" stroke="none" d="M 311 314 L 314 315 C 312.609985 318.369995 311.019989 319.98999 308 322 C 308.630005 319.070007 309.589996 316.640015 311 314 Z"/>
</svg>
